<svg width="15" height="27" viewBox="0 0 15 27" fill="none" xmlns="http://www.w3.org/2000/svg">
<rect width="3" height="3" transform="matrix(-1 0 0 1 15 0)" fill="black"/>
<rect x="15" y="27" width="3" height="3" transform="rotate(180 15 27)" fill="black"/>
<rect width="3" height="3" transform="matrix(-1 0 0 1 12 3)" fill="black"/>
<rect x="12" y="24" width="3" height="3" transform="rotate(180 12 24)" fill="black"/>
<rect width="3" height="3" transform="matrix(-1 0 0 1 9 6)" fill="black"/>
<rect x="9" y="21" width="3" height="3" transform="rotate(180 9 21)" fill="black"/>
<rect width="3" height="3" transform="matrix(-1 0 0 1 6 9)" fill="black"/>
<rect x="6" y="18" width="3" height="3" transform="rotate(180 6 18)" fill="black"/>
<rect width="3" height="3" transform="matrix(-1 0 0 1 3 12)" fill="black"/>
<rect x="3" y="15" width="3" height="3" transform="rotate(180 3 15)" fill="black"/>
</svg>
